#!OML:ASF H:\GeneralSubjects\Female5\Project 1\Capture day 1\Session 1\Female5.ASF
:FULLY-SPECIFIED
:DEGREES
131
root -8.74454 16.0998 -5.66103 -144.835 68.7048 -151.842
lowerback 5.84149 0.655858 2.43727
upperback -9.51722 2.61448 6.65829
thorax -14.0282 1.72633 5.51702
lowerneck -10.9745 -8.59072 -7.37491
upperneck 36.195 -8.16856 -2.86141
head 14.5494 -4.27827 -1.00699
rclavicle 2.08724e-014 9.54166e-015
rhumerus 57.2668 10.495 -28.4832
rradius 44.2719
rwrist 18.9351
rhand -41.3273 -8.52277
rfingers 7.12502
rthumb -14.247 -38.0141
lclavicle 2.08724e-014 9.54166e-015
lhumerus -21.4637 -13.4282 82.195
lradius 64.981
lwrist -4.20026
lhand -28.8557 30.8365
lfingers 7.12502
lthumb -2.21236 60.8047
rfemur 0.594897 8.68283 45.5862
rtibia -5.40913
rfoot -22.7854 -22.3602
rtoes 4.62266
lfemur -37.1509 -4.54419 -13.2396
ltibia 60.1318
lfoot -13.6977 16.3051
ltoes -67.9908
132
root -8.43574 16.0794 -5.69431 -144.014 68.9699 -150.81
lowerback 6.18463 0.776699 2.93325
upperback -9.15188 2.85128 6.87216
thorax -13.8244 1.79089 5.41993
lowerneck -11.4497 -8.39501 -6.96277
upperneck 36.251 -7.77915 -3.32107
head 14.6203 -4.11849 -1.22157
rclavicle 1.23246e-014 -8.26944e-014
rhumerus 56.9012 10.7287 -28.422
rradius 44.4239
rwrist 18.5268
rhand -40.8039 -8.5946
rfingers 7.12502
rthumb -13.7426 -38.1208
lclavicle 1.23246e-014 -8.26944e-014
lhumerus -23.4939 -12.8418 82.3945
lradius 64.1571
lwrist -3.53367
lhand -28.4916 31.0869
lfingers 7.12502
lthumb -1.86067 61.0586
rfemur 2.22305 9.43414 46.3942
rtibia -5.62057
rfoot -23.3045 -22.7514
rtoes 3.60061
lfemur -38.9642 -5.38202 -13.4818
ltibia 56.1927
lfoot -14.4387 17.3337
ltoes -68.7631
133
root -8.12338 16.0547 -5.72816 -142.505 69.2706 -149.145
lowerback 6.48195 0.901572 3.54576
upperback -8.901 3.14023 7.13502
thorax -13.7325 1.88309 5.30603
lowerneck -11.6206 -8.29097 -7.07647
upperneck 36.4118 -7.4811 -3.51025
head 14.7309 -4.02523 -1.24529
rclavicle -2.77305e-014 0
rhumerus 56.1636 11.4058 -28.4331
rradius 44.7846
rwrist 18.2005
rhand -39.8153 -8.17293
rfingers 7.12502
rthumb -12.7897 -37.7612
lclavicle -2.77305e-014 0
lhumerus -25.6544 -12.0763 82.7281
lradius 62.8709
lwrist -3.04682
lhand -28.265 31.4878
lfingers 7.12502
lthumb -1.64186 61.4612
rfemur 3.69463 10.0183 47.3493
rtibia -5.71898
rfoot -23.4231 -22.96
rtoes 1.60804
lfemur -40.4604 -6.15218 -13.2482
ltibia 51.4978
lfoot -15.8995 17.2191
ltoes -68.7628
134
root -7.81278 16.0278 -5.76283 -140.776 69.6893 -147.474
lowerback 6.61389 1.04572 3.93687
upperback -8.74172 3.43426 7.4189
thorax -13.658 2.0085 5.34422
lowerneck -11.7084 -8.16377 -7.2493
upperneck 36.5267 -7.16587 -3.62625
head 14.8093 -3.92339 -1.2208
rclavicle 2.66371e-014 2.8625e-014
rhumerus 55.9414 12.0555 -26.6735
rradius 44.9551
rwrist 16.6292
rhand -39.6264 -7.4417
rfingers 7.12502
rthumb -12.6076 -37.0412
lclavicle 2.66371e-014 2.8625e-014
lhumerus -27.5774 -10.805 83.2266
lradius 60.8848
lwrist -2.8632
lhand -28.3581 32.1107
lfingers 7.12502
lthumb -1.73175 62.0834
rfemur 4.96443 10.859 48.2101
rtibia -5.7396
rfoot -24.4673 -22.6684
rtoes 4.5658
lfemur -41.7632 -7.03456 -12.7783
ltibia 46.0136
lfoot -15.9636 17.4012
ltoes -69.6666
135
root -7.4988 15.995 -5.80603 -139.35 70.2252 -146.307
lowerback 6.46808 1.19882 4.1346
upperback -8.5792 3.67511 7.6388
thorax -13.4033 2.12214 5.43075
lowerneck -12.0189 -7.94723 -7.37218
upperneck 36.5525 -6.79585 -3.5761
head 14.8983 -3.77638 -1.13475
rclavicle -5.48646e-014 -2.70347e-014
rhumerus 55.4209 12.8417 -25.4127
rradius 44.8945
rwrist 15.865
rhand -39.6968 -6.78371
rfingers 7.12502
rthumb -12.6755 -36.3791
lclavicle -5.48646e-014 -2.70347e-014
lhumerus -29.3237 -9.39682 83.6698
lradius 58.5292
lwrist -2.6886
lhand -28.676 33.9552
lfingers 7.12502
lthumb -2.03879 63.9252
rfemur 6.17404 11.7529 48.7989
rtibia -5.85542
rfoot -24.6893 -22.9596
rtoes 3.80974
lfemur -42.7229 -8.37182 -12.2155
ltibia 39.6179
lfoot -15.2484 17.2237
ltoes -69.8677
136
root -7.17885 15.9547 -5.85764 -137.682 70.7481 -145.003
lowerback 6.15432 1.33448 4.47024
upperback -8.41264 3.88581 7.82617
thorax -13.0257 2.20647 5.41032
lowerneck -12.4438 -7.72077 -7.24032
upperneck 36.555 -6.4122 -3.71978
head 14.976 -3.61931 -1.17139
rclavicle -5.56597e-015 3.18055e-014
rhumerus 54.6817 13.7862 -25.0477
rradius 44.5368
rwrist 15.993
rhand -39.3632 -6.4853
rfingers 7.12502
rthumb -12.3539 -36.1003
lclavicle -5.56597e-015 3.18055e-014
lhumerus -31.193 -7.88815 83.9323
lradius 56.1057
lwrist -2.78241
lhand -28.7368 35.8987
lfingers 7.12502
lthumb -2.0975 65.8682
rfemur 7.24488 11.941 49.2333
rtibia -5.95095
rfoot -24.1106 -22.9171
rtoes 0.546472
lfemur -43.3939 -10.3608 -11.0146
ltibia 32.5698
lfoot -14.7265 16.9276
ltoes -70.028
